<?xml version="1.0" encoding="UTF-8" standalone="no"?>
<svg
   xmlns:dc="http://purl.org/dc/elements/1.1/"
   xmlns:cc="http://creativecommons.org/ns#"
   xmlns:rdf="http://www.w3.org/1999/02/22-rdf-syntax-ns#"
   xmlns:svg="http://www.w3.org/2000/svg"
   xmlns="http://www.w3.org/2000/svg"
   viewBox="0 0 512 512"
   height="512"
   width="512"
   id="svg890"
   version="1.1">
  <metadata
     id="metadata896">
    <rdf:RDF>
      <cc:Work
         rdf:about="">
        <dc:format>image/svg+xml</dc:format>
        <dc:type
           rdf:resource="http://purl.org/dc/dcmitype/StillImage" />
        <dc:title></dc:title>
      </cc:Work>
    </rdf:RDF>
  </metadata>
  <defs
     id="defs894" />
  <path
     id="path912"
     d="M -0.087890625 -0.033203125 L -0.087890625 511.99219 L 46.007812 511.99219 L 46.007812 512.00391 L 457.60156 512.00391 L 457.60156 511.99219 L 512.14062 511.99219 L 512.14062 -0.033203125 L -0.087890625 -0.033203125 z M 265.11914 37.617188 C 270.08188 37.544447 274.89354 38.889102 277.64258 41.376953 C 278.87069 42.488373 279.25381 42.483408 283.57227 41.314453 C 291.38132 39.200642 298.77108 41.287689 305.13672 47.40625 C 308.21156 50.361745 308.21256 50.362323 312.41406 49.470703 C 319.83022 47.896888 325.31562 49.266334 330.65625 54.025391 C 332.21103 55.410872 334.71175 56.712869 336.81836 57.230469 C 342.16853 58.544998 351.26201 63.042578 358.25195 67.830078 C 361.68837 70.183727 366.41207 72.975477 368.74805 74.035156 C 379.11889 78.739733 385.12963 84.457525 389.87109 94.134766 C 391.50614 97.471885 394.48308 102.75589 396.48828 105.87695 C 400.74493 112.50241 404.77951 120.36633 407.14062 126.63867 C 408.06147 129.08493 410.10323 133.64974 411.67773 136.78125 C 420.95257 155.228 423.6472 184.30874 418.37695 209.08398 C 414.38226 227.86284 413.85019 229.84093 412.42578 231.16797 C 411.61169 231.92641 410.93813 233.41498 410.92969 234.47266 C 410.70807 262.2336 380.44055 303.27833 332.56445 340.74219 C 307.74669 360.16252 282.36305 377.51535 247.61914 398.81641 C 239.29223 403.92152 238.51555 404.58156 237.83594 407.10547 C 236.16069 413.32685 227.10705 415.8321 212.91211 414.00195 C 203.65166 412.80801 195.98484 408.19018 194.89844 403.15234 C 194.06341 399.28015 191.75725 395.57459 183.62109 385.0332 C 119.61125 302.10048 84.414499 241.81455 81.064453 209.36328 C 79.176788 191.07785 83.627943 149.78887 89.390625 132.12305 C 98.688382 103.62023 119.01817 81.570179 150.75586 65.566406 C 156.59223 62.623398 162.81945 58.87914 165.2793 56.832031 C 176.52796 47.470804 188.05867 43.140793 201.82227 43.113281 C 205.86569 43.105181 210.01316 42.56621 213.88281 41.544922 C 219.12009 40.162683 221.72357 39.978149 237.1582 39.892578 C 251.09293 39.815328 255.31125 39.564232 258.43945 38.621094 C 260.57759 37.976456 262.86336 37.650252 265.11914 37.617188 z M 264.48633 40.871094 C 263.25241 40.903324 262.00276 41.082624 260.74414 41.419922 C 258.45205 42.034178 258.7504 42.734086 262.16211 44.736328 C 271.63241 50.294188 281.25168 63.492905 284.18555 74.957031 C 285.46738 79.965751 287.60967 81.30137 290.15234 78.675781 C 294.37074 74.319815 315.64034 62.0623 324.25195 59.023438 C 330.83839 56.699201 325.42431 51.880825 316.94336 52.519531 C 307.37438 53.240179 293.5275 65.433149 291.42969 74.984375 C 290.28556 80.19362 286.8195 77.389475 286.79883 71.238281 C 286.74083 53.987518 276.41432 40.559485 264.48633 40.871094 z M 232.07422 43.179688 C 225.09011 43.242958 221.05214 43.905069 225.49023 44.880859 C 242.8963 48.707884 260.72521 56.378597 271.56055 64.699219 C 276.92093 68.815529 277.99932 69.323868 277.27734 67.396484 C 272.57991 54.856168 259.72345 44.944511 246.63477 43.775391 C 241.51729 43.318282 236.26469 43.141728 232.07422 43.179688 z M 289.02734 43.794922 C 285.04582 43.876272 282.67623 46.10974 285.05078 50.429688 C 287.17716 54.29818 288.09374 57.07353 290.00977 65.445312 C 290.49681 67.573319 290.49693 67.572516 292.33203 65.089844 C 293.34134 63.724381 296.53586 60.265209 299.43164 57.404297 C 304.69667 52.202636 304.69873 52.20546 302.67188 50.070312 C 298.6039 45.784968 293.00886 43.713571 289.02734 43.794922 z M 206.36719 47.296875 C 205.56856 47.289382 204.77478 47.291106 203.98633 47.302734 C 190.77044 47.497647 179.07494 50.394276 171.90039 56.453125 C 169.70738 58.305095 170.40447 58.354827 177.92773 56.894531 C 206.23487 51.399984 239.97733 56.812377 270.62891 71.763672 C 274.26226 73.535953 277.37866 74.994413 277.55273 75.003906 C 277.72679 75.013706 276.76829 73.876727 275.42383 72.476562 C 260.46976 56.902926 231.12477 47.52917 206.36719 47.296875 z M 201.36328 58.759766 C 147.08671 59.332497 100.33028 92.671771 89.621094 145.22266 C 87.266231 156.77817 87.818193 156.70694 93.638672 144.69922 C 107.9294 115.21727 124.86531 99.77044 160.97656 83.287109 C 191.14205 69.517783 224.49944 67.039157 266.41797 75.451172 C 272.63369 76.698512 264.60502 72.304847 252.50391 67.835938 C 235.29726 61.481555 217.97855 58.584439 201.36328 58.759766 z M 332.8457 60.662109 C 328.21824 60.719789 323.27432 62.739657 315.00781 67.035156 C 310.95049 69.14345 308.16151 71.706854 311.18945 70.544922 C 311.72256 70.340349 315.63288 69.625498 319.87891 68.957031 C 325.89528 68.009853 330.33128 67.823314 339.98047 68.109375 C 353.96732 68.524015 354.0545 68.442818 344.48242 63.939453 C 339.85077 61.760414 336.44485 60.617247 332.8457 60.662109 z M 334.98633 71.439453 C 325.47736 71.461173 315.5912 72.828909 306.16992 75.65625 C 298.89804 77.838543 298.69925 78.885426 305.68555 78.220703 C 329.63089 75.942389 359.77697 80.407889 379.02344 89.085938 C 382.8517 90.81206 383.28125 90.880917 383.28125 89.765625 C 383.28125 89.292415 381.55398 87.273224 379.44336 85.277344 C 369.91583 76.267716 353.1398 71.398002 334.98633 71.439453 z M 220.92773 74.298828 C 169.72784 75.023602 122.79485 99.545043 100.69531 138.68359 C 78.674355 177.68297 80.969205 219.18588 107.86523 268.31445 C 117.70063 286.27992 119.68308 288.26076 114.56055 275.00391 C 93.800453 221.27789 104.32411 173.31114 146.35352 130.08594 C 176.51982 99.061346 212.26624 82.184385 253.28125 79.599609 C 265.33133 78.84022 262.49912 77.738277 242.47656 75.400391 C 236.92494 74.752167 231.39097 74.390304 225.89648 74.302734 C 224.23669 74.276282 222.57934 74.275448 220.92773 74.298828 z M 320.15039 81.328125 C 302.79718 81.319325 301.88986 82.164618 316.24805 84.962891 C 353.35184 92.194047 380.0834 102.80705 394.63086 116.08398 C 398.74856 119.84203 399.5957 120.29886 399.5957 118.76172 C 399.5957 116.15343 388.12988 99.539199 383.83789 95.927734 C 374.74847 88.27949 344.48187 81.341019 320.15039 81.328125 z M 269.5 82.886719 C 267.38147 82.837389 264.32413 82.896899 260.28711 83.019531 C 216.02191 84.364475 179.92444 100.42778 148.78711 132.64062 C 96.729539 186.49632 94.244376 246.36073 141.13281 317.00781 C 144.64316 322.29687 146.92016 326.40772 146.68164 327.0293 C 145.90617 329.05013 192.35997 392.44081 193.66211 391.13867 C 193.86423 390.93655 190.13575 380.95682 185.37891 368.96094 C 148.57351 276.14453 143.87079 231.72711 165.17188 178.10156 C 183.90134 130.95012 211.52599 105.6765 264.27734 87.431641 C 273.75725 84.152866 275.85559 83.034668 269.5 82.886719 z M 300.75 86.041016 C 298.20643 86.190253 302.54984 88.633986 313.07422 94.484375 C 379.07733 131.17481 405.41668 162.11394 411.99414 210.68164 C 412.63668 215.42603 413.5063 214.87589 414.79883 208.9082 C 418.93141 189.8278 418.09094 164.08651 412.83398 148.73242 C 402.20207 117.67958 374.4817 100.38889 316.70898 88.769531 C 308.62562 87.143784 303.56721 86.138177 301.34961 86.041016 C 301.11861 86.030895 300.91957 86.031066 300.75 86.041016 z M 285.08789 87.265625 C 283.88603 87.265143 282.33962 89.151603 279.44727 92.089844 C 241.23293 130.91065 227.20552 201.07312 218.54883 396.70312 C 218.25104 403.43306 225.42017 404.01327 233.10547 397.87891 C 248.12022 385.89423 274.74972 340.54818 295.87305 290.99805 C 320.20893 233.91208 319.12191 189.25148 291.27148 101.97461 C 287.86445 91.297731 286.84445 87.266323 285.08789 87.265625 z M 277.2793 87.294922 C 276.47529 87.255322 274.8794 87.659531 272.43164 88.435547 C 215.55253 106.46804 186.49613 132.41051 167.48828 182.13086 C 147.61075 234.12613 152.74256 277.15559 190.00195 370.92383 C 200.8967 398.34194 199.93649 396.70732 206.43555 398.92188 C 213.80699 401.4337 214.28036 401.31986 214.75977 396.88281 C 214.98106 394.83461 215.96854 377.51693 216.95508 358.40039 C 221.94529 261.70353 225.99945 221.62402 234.72461 182.73828 C 243.84865 142.07477 258.79332 108.20914 274.97461 91.529297 C 277.75838 88.659767 278.61934 87.360971 277.2793 87.294922 z M 292.06055 89.490234 C 291.02364 89.615856 292.31449 93.600004 295.25195 102.72656 C 318.09403 173.69622 322.28381 219.7916 309.82227 262.99414 C 298.35528 302.74868 262.36529 371.86664 240.68945 395.75586 C 234.61484 402.45076 234.73685 402.49612 243.83008 396.93945 C 302.37769 361.16222 324.66009 343.5873 343.56445 318.26758 C 373.9075 277.62738 379.3107 224.5499 357.75781 178.82812 C 346.98406 155.97295 317.44913 114.11904 299.02344 95.591797 C 295.08118 91.627809 292.86703 89.392522 292.06055 89.490234 z M 303.47852 93.689453 C 303.41922 93.678643 303.38252 93.679612 303.36719 93.695312 C 303.16147 93.901026 305.83591 97.36532 309.31055 101.39258 C 335.0368 131.21038 360.33145 171.16935 367.60352 193.48047 C 381.87266 237.25902 373.22814 285.9923 344.64062 322.93164 C 337.23865 332.49611 337.30474 332.4955 348.52344 322.85156 C 398.38626 279.98794 416.62748 239.78846 405.55273 197.16406 C 396.64992 162.89897 375.83566 136.95292 338.23633 113.23633 C 327.71009 106.59668 305.31394 94.02292 303.47852 93.689453 z M 198.77539 400.12305 C 197.58745 400.14755 198.06096 402.52453 199.90234 404.71289 C 203.86801 409.42582 217.69441 412.40822 227.12695 410.58594 C 230.24593 409.98339 233.63758 407.97006 234.15625 406.41406 C 234.35207 405.82659 233.18262 405.56878 230.30078 405.56836 C 219.17321 405.56737 207.09707 403.4954 199.38477 400.26367 C 199.14638 400.16377 198.94509 400.11955 198.77539 400.12305 z M 202.71875 415.53125 C 206.02566 415.50975 210.17767 416.04242 215.45703 416.93359 C 231.83581 419.69838 234.18048 423.19381 231.50586 440.84961 C 228.51096 460.61948 225.49444 462.73107 204.88281 459.49805 C 188.28117 456.89401 185.61946 453.15326 188.18359 436.02734 C 190.48535 420.65373 192.79802 415.59593 202.71875 415.53125 z M 206.06641 422.86914 C 203.23515 422.90644 200.70963 423.38729 199.0332 424.45117 C 191.16835 429.44233 213.63216 437.47119 222.96289 433.00391 C 223.93345 432.53924 224.83813 431.58913 224.97266 430.89062 C 225.78868 426.6533 214.5602 422.75723 206.06641 422.86914 z M 193.85547 429.41211 C 192.88082 429.31501 192.41129 431.66607 191.4375 438.25781 C 189.51964 451.24012 191.36025 453.62509 205.08203 455.9375 C 214.50757 457.5259 218.93604 457.6398 221.41211 456.35938 C 225.02872 454.48915 225.88818 452.79471 227.27148 444.80859 C 229.26029 433.32672 229.2942 433.51282 225.63086 435.60547 C 217.91447 440.01342 201.0381 437.36515 195.5918 430.89258 C 194.84482 430.00485 194.29849 429.45627 193.85547 429.41211 z "
     style="fill:#333333;stroke:none;stroke-width:0.70933348" />
</svg>
